<svg xmlns="http://www.w3.org/2000/svg" viewBox="0 0 83.92 80"><defs><style>.cls-1{fill:#fff;}</style></defs><g id="Icon"><path class="cls-1" d="M267.92,215.333H227.989a40.074,40.074,0,0,1,34.6-2.57h0Zm-47.158,5.334A39.661,39.661,0,0,0,215.95,226h18.211a32.031,32.031,0,0,1,4.827-5.333Zm-8.193,10.666a39.024,39.024,0,0,0-2.342,5.334h18.936a31.374,31.374,0,0,1,1.9-5.334ZM228.267,242H208.749a39.8,39.8,0,0,0-.709,5.333h20.227q-.112-1.32-.112-2.666C228.155,243.771,228.192,242.88,228.267,242Zm.9,10.667H208.04a39.8,39.8,0,0,0,.709,5.333h22.313A31.364,31.364,0,0,1,229.163,252.667Zm5,10.666H210.227a39.024,39.024,0,0,0,2.342,5.334h26.419A32.077,32.077,0,0,1,234.161,263.333ZM215.95,274a39.661,39.661,0,0,0,4.812,5.333h29.859V274Zm12.039,10.667c.1.064.2.122.31.176.192.112.389.218.586.325.283.155.571.309.859.453A39.8,39.8,0,0,0,247.954,290c.886,0,1.766-.027,2.635-.091a.031.031,0,0,0,.032,0v-5.242Zm44.4-30.96a22.689,22.689,0,0,1-20.653,16.266,26.7,26.7,0,0,1-15.191-12.922l16.375-6.022a16.2,16.2,0,0,1-4.774-3.93l-13.6,5a26.5,26.5,0,0,1-1.056-7.434c0-.816.037-1.627.112-2.427l1.034-.6a45.487,45.487,0,0,1,15.192-4.821.765.765,0,0,0-.006.117,10.665,10.665,0,0,0,20.03,5.1,12,12,0,0,0,2.533,11.67Zm-6.651-15.792a.019.019,0,0,1-.006.016c-.021.112-.042.224-.074.336-.011.053-.027.106-.043.16a3.577,3.577,0,0,1-.112.341c-.011.027-.021.059-.032.085-.037.1-.08.192-.123.288-.026.059-.053.118-.085.176-.043.091-.091.176-.139.262a.8.8,0,0,1-.069.117c-.059.1-.123.2-.192.293-.032.048-.064.091-.1.134a3.262,3.262,0,0,1-.2.256c-.1.122-.213.24-.325.352-.1.1-.208.2-.32.288-.048.037-.091.074-.139.112A5.249,5.249,0,0,1,261.3,242.2c-.069.016-.144.021-.219.032a5.437,5.437,0,0,1-.592.032,5.336,5.336,0,0,1-5.334-5.334c0-.165.006-.33.022-.49A36.664,36.664,0,0,1,265.733,237.915Zm18.957-3.766a38.709,38.709,0,0,0-2.07-4.122,40.3,40.3,0,0,0-7.473-9.36H248.53a26.787,26.787,0,0,0-13.4,14.768,51.278,51.278,0,0,1,16.376-4.251,42.046,42.046,0,0,1,16.743,1.9c.827.272,1.665.576,2.5.912a40.03,40.03,0,0,1,3.776,1.76,11.991,11.991,0,0,1,10.145-1.6c0-.006,0-.011,0-.016S284.679,234.149,284.69,234.149Zm-.731,4.784a9.343,9.343,0,0,0-9.068,7.11c.352-.032.71-.043,1.067-.043.235,0,.469,0,.7.021a14.657,14.657,0,0,1,13.063,9.579,13.745,13.745,0,0,1,.667,2.469,15.5,15.5,0,0,0,1.413-4.752,18.153,18.153,0,0,0,.155-2.384C291.96,244.3,288.376,238.933,283.959,238.933Z" transform="translate(-208.04 -210)"/></g></svg>