<svg xmlns="http://www.w3.org/2000/svg" viewBox="0 0 320 51.659"><defs><style>.cls-1{fill:#ff8610;}.cls-2{fill:#f0762d;}.cls-3{fill:#e1664a;}.cls-4{fill:#d25667;}.cls-5{fill:#c34584;}.cls-6{fill:#b435a1;}.cls-7{fill:#a525be;}.cls-8{fill:#9615db;}.cls-9{fill:#000;}</style></defs><g id="Horizontal_White"><path class="cls-1" d="M127.425,228.333H102.468a25.046,25.046,0,0,1,21.623-1.606h0Z" transform="translate(-90 -225)"/><path class="cls-2" d="M97.951,231.667A24.768,24.768,0,0,0,94.944,235h11.381a20.058,20.058,0,0,1,3.017-3.333Z" transform="translate(-90 -225)"/><path class="cls-3" d="M92.83,238.333a24.506,24.506,0,0,0-1.463,3.334H103.2a19.558,19.558,0,0,1,1.187-3.334Z" transform="translate(-90 -225)"/><path class="cls-4" d="M102.642,245h-12.2A24.856,24.856,0,0,0,90,248.333h12.642q-.07-.825-.07-1.666C102.572,246.107,102.6,245.55,102.642,245Z" transform="translate(-90 -225)"/><path class="cls-5" d="M103.2,251.667H90A24.856,24.856,0,0,0,90.443,255h13.946A19.548,19.548,0,0,1,103.2,251.667Z" transform="translate(-90 -225)"/><path class="cls-6" d="M106.325,258.333H91.367a24.506,24.506,0,0,0,1.463,3.334h16.512A20.1,20.1,0,0,1,106.325,258.333Z" transform="translate(-90 -225)"/><path class="cls-7" d="M94.944,265a24.768,24.768,0,0,0,3.007,3.333h18.662V265Z" transform="translate(-90 -225)"/><path class="cls-8" d="M102.468,271.667c.064.04.127.076.194.11.12.07.243.136.366.2.177.1.357.193.537.283A24.874,24.874,0,0,0,114.947,275c.553,0,1.1-.017,1.646-.057a.018.018,0,0,0,.02,0v-3.276Z" transform="translate(-90 -225)"/><path class="cls-9" d="M130.215,252.317a14.18,14.18,0,0,1-12.908,10.166,16.692,16.692,0,0,1-9.5-8.076l10.235-3.764a10.124,10.124,0,0,1-2.984-2.456l-8.5,3.126a16.561,16.561,0,0,1-.66-4.646c0-.51.024-1.017.07-1.517l.647-.377a28.429,28.429,0,0,1,9.5-3.013.447.447,0,0,0,0,.073,6.666,6.666,0,0,0,12.519,3.19,7.507,7.507,0,0,0,1.583,7.294Z" transform="translate(-90 -225)"/><path class="cls-9" d="M126.058,242.447l0,.01c-.014.07-.027.14-.047.21-.007.033-.017.066-.027.1a2.21,2.21,0,0,1-.07.213c-.006.017-.013.037-.02.053-.023.064-.05.12-.076.18-.017.037-.034.074-.054.11-.026.057-.056.11-.086.164a.589.589,0,0,1-.044.073,1.917,1.917,0,0,1-.12.183c-.02.03-.04.057-.06.084a2.028,2.028,0,0,1-.127.16c-.063.076-.133.15-.2.22s-.13.123-.2.18c-.03.023-.057.046-.087.07a3.281,3.281,0,0,1-1.546.67c-.044.01-.09.013-.137.02a3.428,3.428,0,0,1-.37.02,3.336,3.336,0,0,1-3.334-3.334c0-.1,0-.206.013-.306A22.9,22.9,0,0,1,126.058,242.447Z" transform="translate(-90 -225)"/><path class="cls-9" d="M137.906,240.093a24.208,24.208,0,0,0-1.293-2.576,25.193,25.193,0,0,0-4.671-5.85H115.307a16.741,16.741,0,0,0-8.375,9.23,32.034,32.034,0,0,1,10.235-2.657,26.282,26.282,0,0,1,10.464,1.19c.517.17,1.041.36,1.561.57a25.063,25.063,0,0,1,2.36,1.1,7.493,7.493,0,0,1,6.341-1l0-.01C137.893,240.093,137.9,240.093,137.906,240.093Z" transform="translate(-90 -225)"/><path class="cls-9" d="M137.449,243.083a5.839,5.839,0,0,0-5.667,4.444c.22-.02.443-.027.667-.027.146,0,.293,0,.44.013a9.161,9.161,0,0,1,8.164,5.987,8.523,8.523,0,0,1,.417,1.543,9.684,9.684,0,0,0,.883-2.97,11.3,11.3,0,0,0,.1-1.49C142.45,246.44,140.21,243.083,137.449,243.083Z" transform="translate(-90 -225)"/><path class="cls-9" d="M155.616,267.336q-2.762-.21-4.867-.537v-4.906q5.239.513,8.33.513a17.582,17.582,0,0,0,3.276-.234,3.576,3.576,0,0,0,1.731-.747,2.013,2.013,0,0,0,.7-1.215,12.39,12.39,0,0,0,.14-2.149,10.222,10.222,0,0,0-.21-2.477,1.761,1.761,0,0,0-.819-1.1,6.554,6.554,0,0,0-2.059-.584l-5.943-.842q-3.37-.418-4.633-2.593A12.679,12.679,0,0,1,150,244.182a11.493,11.493,0,0,1,1.287-6,6.337,6.337,0,0,1,3.557-2.8,19.351,19.351,0,0,1,5.779-.724,45.969,45.969,0,0,1,4.82.257,35.465,35.465,0,0,1,4.071.631v4.812a45.571,45.571,0,0,0-7.44-.56,22.034,22.034,0,0,0-3.252.187,4.4,4.4,0,0,0-1.8.607,1.882,1.882,0,0,0-.843,1.145,9.343,9.343,0,0,0-.187,2.173,9.861,9.861,0,0,0,.187,2.29,1.447,1.447,0,0,0,.749.981,6.747,6.747,0,0,0,1.919.467l5.989.8a8.67,8.67,0,0,1,3.253,1.051,5.2,5.2,0,0,1,2.036,2.5,15.189,15.189,0,0,1,.8,5.515,13.825,13.825,0,0,1-1.193,6.448,5.786,5.786,0,0,1-3.323,2.9,18.335,18.335,0,0,1-5.592.7Q158.377,267.546,155.616,267.336ZM193.9,257.079H180.839a16.812,16.812,0,0,0,.3,3.9,2.12,2.12,0,0,0,1.451,1.5,13.79,13.79,0,0,0,4,.4,62.141,62.141,0,0,0,6.552-.373v4.345a24.567,24.567,0,0,1-3.557.515q-2.2.184-4.259.186-4.632,0-6.762-1.191a5.594,5.594,0,0,1-2.761-3.645,43.237,43.237,0,0,1,0-14.72,5.92,5.92,0,0,1,2.691-3.761q2.06-1.262,6.411-1.261,4.258,0,6.154,1.214a5.3,5.3,0,0,1,2.364,3.622,43.331,43.331,0,0,1,.467,7.5Zm-11.7-9.065a2.168,2.168,0,0,0-1.053,1.542,20.094,20.094,0,0,0-.3,3.692h7.722a16.335,16.335,0,0,0-.305-3.738,2.2,2.2,0,0,0-1.076-1.543,5.686,5.686,0,0,0-2.363-.374A5.976,5.976,0,0,0,182.2,248.014Zm29.9,19.159-5.615-9.579h-1.872v9.579H199v-34.72h5.616V252.92h1.872l5.709-9.579h5.99l-7.16,11.449,7.253,12.383Zm27.376-10.094H226.419a16.812,16.812,0,0,0,.3,3.9,2.12,2.12,0,0,0,1.451,1.5,13.786,13.786,0,0,0,4,.4,62.123,62.123,0,0,0,6.551-.373v4.345a24.529,24.529,0,0,1-3.556.515q-2.2.184-4.259.186-4.632,0-6.762-1.191a5.591,5.591,0,0,1-2.761-3.645,43.237,43.237,0,0,1,0-14.72,5.92,5.92,0,0,1,2.691-3.761q2.059-1.262,6.411-1.261,4.258,0,6.154,1.214a5.294,5.294,0,0,1,2.363,3.622,43.207,43.207,0,0,1,.468,7.5Zm-11.7-9.065a2.168,2.168,0,0,0-1.053,1.542,20.094,20.094,0,0,0-.3,3.692h7.721a16.348,16.348,0,0,0-.3-3.738,2.2,2.2,0,0,0-1.076-1.543,5.686,5.686,0,0,0-2.363-.374A5.976,5.976,0,0,0,227.776,248.014Zm16.8-4.673h5.241l.188,4.112h.374a5.806,5.806,0,0,1,2.363-3.5,8.286,8.286,0,0,1,4.329-.98v5.653a8.856,8.856,0,0,0-4.142.794,4.494,4.494,0,0,0-2.106,2.57,15.18,15.18,0,0,0-.631,4.908v10.28h-5.616Zm26.907,23.832V235.024h17.97v5.14H277.426v8.972H288.05v5.186H277.426v12.851Zm22.182-1.309q-1.545-1.683-1.544-5.42a12.459,12.459,0,0,1,.608-4.369,4.117,4.117,0,0,1,2.082-2.29,9.449,9.449,0,0,1,4.1-.725q2.106,0,6.224.188v-1.029a8.527,8.527,0,0,0-.4-3.106,2,2,0,0,0-1.451-1.169,17.458,17.458,0,0,0-3.626-.257q-1.216,0-3.135.117t-3.089.257v-4.392a47.038,47.038,0,0,1,8-.7,14.646,14.646,0,0,1,5.967.934,4.877,4.877,0,0,1,2.667,2.92,18.387,18.387,0,0,1,.679,5.678v14.673H305.5l-.186-2.9h-.328q-1.452,3.272-6.5,3.271A6.247,6.247,0,0,1,293.665,265.864Zm9.476-3.295a2.5,2.5,0,0,0,1.287-1,7.235,7.235,0,0,0,.7-3.739v-.934h-4.679a5.715,5.715,0,0,0-1.8.209,1.334,1.334,0,0,0-.819.842,6.129,6.129,0,0,0-.234,1.986,5.094,5.094,0,0,0,.257,1.869,1.42,1.42,0,0,0,.96.818,8.589,8.589,0,0,0,2.246.21A6.777,6.777,0,0,0,303.141,262.569Zm24.825,4.791a29.315,29.315,0,0,1-3.182.186q-4.024,0-5.943-1.308a5.992,5.992,0,0,1-2.481-3.808,34.839,34.839,0,0,1-.561-7.173,31.41,31.41,0,0,1,.632-7.149,6.244,6.244,0,0,1,2.527-3.856,10.31,10.31,0,0,1,5.732-1.284,29.237,29.237,0,0,1,3.253.186,14.525,14.525,0,0,1,2.69.515v4.392a24.418,24.418,0,0,0-4.445-.374,6.849,6.849,0,0,0-3.158.537,2.825,2.825,0,0,0-1.264,2.057,28.276,28.276,0,0,0-.305,4.976,26.713,26.713,0,0,0,.328,5.023,2.809,2.809,0,0,0,1.287,2.033,7.1,7.1,0,0,0,3.158.514,30.569,30.569,0,0,0,4.587-.327v4.345A18.192,18.192,0,0,1,327.966,267.36Zm9.36-.187V248.061h-3.885v-4.72h3.885v-6.915h5.615v6.915h4.68v4.72h-4.68v19.112Zm16.285-.678a4.953,4.953,0,0,1-2.574-3.458,54.553,54.553,0,0,1,0-15.607A4.879,4.879,0,0,1,353.611,244q2.012-1.029,6.6-1.028,4.538,0,6.551,1.028a4.889,4.889,0,0,1,2.573,3.457,38.454,38.454,0,0,1,.562,7.8,38.06,38.06,0,0,1-.562,7.78,4.952,4.952,0,0,1-2.573,3.458q-2.012,1.052-6.551,1.051Q355.623,267.546,353.611,266.5Zm9.453-4.135a2.381,2.381,0,0,0,.983-1.869,73.663,73.663,0,0,0,0-10.491,2.391,2.391,0,0,0-.96-1.846,6.12,6.12,0,0,0-2.877-.467,6.285,6.285,0,0,0-2.9.467,2.358,2.358,0,0,0-.983,1.846,73.663,73.663,0,0,0,0,10.491,2.381,2.381,0,0,0,.983,1.869,6.271,6.271,0,0,0,2.9.467A6.129,6.129,0,0,0,363.064,262.36Zm11.885-19.019h5.241l.188,4.112h.374a5.806,5.806,0,0,1,2.363-3.5,8.286,8.286,0,0,1,4.329-.98v5.653a8.856,8.856,0,0,0-4.142.794,4.494,4.494,0,0,0-2.106,2.57,15.176,15.176,0,0,0-.632,4.908v10.28h-5.615Zm17.737,32.85v-4.345c.685,0,1.185.015,1.5.046l4.492.047a11.673,11.673,0,0,0,3.931-.467,2.325,2.325,0,0,0,1.474-1.659,18.774,18.774,0,0,0,.305-4.089v-1.588h-.328a4.939,4.939,0,0,1-2.246,2.359,8.6,8.6,0,0,1-3.931.771,7.339,7.339,0,0,1-4.259-1,4.9,4.9,0,0,1-1.872-2.992,25.406,25.406,0,0,1-.467-5.537V243.341H396.9v12.617a30.207,30.207,0,0,0,.211,4.369,2.08,2.08,0,0,0,.912,1.612,5.6,5.6,0,0,0,2.434.374,4.279,4.279,0,0,0,2.6-.631,3.152,3.152,0,0,0,1.076-2.01,24.839,24.839,0,0,0,.258-4.181v-12.15H410v20.981a32.09,32.09,0,0,1-.632,7.36,5.779,5.779,0,0,1-2.76,3.739q-2.132,1.236-6.669,1.238A47.432,47.432,0,0,1,392.686,276.191Z" transform="translate(-90 -225)"/></g></svg>