<svg id="Layer_1" data-name="Layer 1" xmlns="http://www.w3.org/2000/svg" viewBox="0 0 17.5 20"><defs><style>.discord-grayscale-1{fill:#cbcbcc;}</style></defs><path id="Discord_Icon-2" data-name="Discord Icon-2" class="discord-grayscale-1" d="M56.7,40a2.06,2.06,0,0,1,2,2.06h0V60L56.6,58.1,55.39,57l-1.28-1.19.53,1.85H43.3a2.06,2.06,0,0,1-2-2.06h0V42.06a2.06,2.06,0,0,1,2-2.06H56.7ZM52.84,53.06a3.66,3.66,0,0,0,3.06-1.52,13.28,13.28,0,0,0-1.44-5.83,5,5,0,0,0-2.81-1.05l-.14.16A6.69,6.69,0,0,1,54,46.09a8.17,8.17,0,0,0-3-1,8.53,8.53,0,0,0-2,0l-.17,0a7.45,7.45,0,0,0-2.27.63c-.37.17-.59.29-.59.29a6.85,6.85,0,0,1,2.63-1.31l-.1-.12a5,5,0,0,0-2.81,1.05,13.28,13.28,0,0,0-1.44,5.83,3.63,3.63,0,0,0,3.05,1.52l.67-.83a3.12,3.12,0,0,1-1.75-1.18l.28.17,0,0,0,0h0l0,0a6.89,6.89,0,0,0,.73.34,9.51,9.51,0,0,0,1.47.43,7.05,7.05,0,0,0,4-.42A6.24,6.24,0,0,0,54,51.06a3.19,3.19,0,0,1-1.81,1.19c.3.38.66.81.66.81m-4.65-4.67a1.11,1.11,0,0,0,0,2.22,1.06,1.06,0,0,0,1-1.11h0a1.06,1.06,0,0,0-1-1.11h0m3.65,0a1.11,1.11,0,1,0,1,1.2V49.5a1.06,1.06,0,0,0-1-1.11h0" transform="translate(-41.25 -40)"/></svg>