<svg id="Layer_1" data-name="Layer 1" xmlns="http://www.w3.org/2000/svg" viewBox="0 0 20 20"><defs><style>.instagram-grayscale-1{fill:#cbcbcc;}</style></defs><path id="Instagram_Icon_-_Light_Background-2" data-name="Instagram Icon - Light Background-2" class="instagram-grayscale-1" d="M50,41.8c2.67,0,3,0,4,.06,2.71.12,4,1.41,4.1,4.1,0,1,.06,1.37.06,4s0,3-.06,4c-.12,2.69-1.38,4-4.1,4.1-1,0-1.37.06-4,.06s-3,0-4-.06c-2.72-.12-4-1.42-4.1-4.1,0-1-.06-1.37-.06-4s0-3,.06-4c.12-2.69,1.38-4,4.1-4.1,1,0,1.37-.06,4-.06M50,40c-2.72,0-3,0-4.12.06-3.63.17-5.65,2.18-5.82,5.82C40,46.94,40,47.28,40,50s0,3.06.06,4.12c.17,3.64,2.18,5.65,5.82,5.82C47,60,47.28,60,50,60s3.06,0,4.12-.06c3.63-.17,5.66-2.18,5.82-5.82C60,53.06,60,52.72,60,50s0-3.06-.06-4.12c-.16-3.63-2.18-5.65-5.82-5.82C53.06,40,52.72,40,50,40m0,4.86A5.14,5.14,0,1,0,55.14,50,5.14,5.14,0,0,0,50,44.86h0m0,8.47A3.34,3.34,0,1,1,53.33,50h0A3.33,3.33,0,0,1,50,53.33h0m5.34-9.87a1.2,1.2,0,1,0,1.2,1.2,1.2,1.2,0,0,0-1.2-1.2" transform="translate(-40 -40)"/></svg>