<?xml version="1.0" encoding="UTF-8"?><svg id="a" xmlns="http://www.w3.org/2000/svg" viewBox="0 0 30 30"><defs><style>.c{fill:#969899;}</style></defs><path id="b" class="c" d="M25.02,0H4.98C2.23,.01,.01,2.23,0,4.98V25.02c.01,2.75,2.23,4.97,4.98,4.98H25.02c2.75-.01,4.97-2.23,4.98-4.98V4.98C29.99,2.24,27.76,.01,25.02,0h0ZM9.6,13.13h10.79c1.04,2.98-.54,6.24-3.52,7.27-2.98,1.04-6.24-.54-7.27-3.52-.42-1.21-.42-2.54,0-3.75Zm16.65,0v11.25c0,1.03-.84,1.87-1.88,1.88H5.63c-1.04,0-1.88-.84-1.88-1.88V13.13h2.93c-1.03,4.59,1.85,9.15,6.45,10.19s9.15-1.85,10.19-6.45c.28-1.23,.28-2.51,0-3.74h2.93Zm0-6.56c0,.52-.42,.94-.94,.94h-1.88c-.52,0-.94-.42-.94-.94v-1.87c0-.52,.42-.94,.94-.94h1.88c.52,0,.94,.42,.94,.94v1.87Z"/></svg>