<?xml version="1.0" encoding="UTF-8"?><svg id="a" xmlns="http://www.w3.org/2000/svg" viewBox="0 0 30 30"><defs><style>.c{fill:#969899;}</style></defs><path id="b" class="c" d="M0,0V30H30V0H0ZM24.92,7.1l-1.61,1.55c-.14,.1-.21,.28-.18,.45v11.33c-.03,.17,.04,.35,.18,.45l1.57,1.54v.34h-7.9v-.33l1.63-1.58c.16-.16,.16-.21,.16-.45V11.24l-4.53,11.49h-.61l-5.27-11.49v7.7c-.04,.32,.07,.65,.3,.88l2.12,2.57v.34H4.77v-.34l2.12-2.57c.23-.23,.33-.56,.28-.88V10.03c.03-.25-.07-.49-.25-.66l-1.88-2.27v-.34h5.85l4.51,9.91,3.97-9.9h5.57v.33Z"/></svg>