<svg id="Layer_1" data-name="Layer 1" xmlns="http://www.w3.org/2000/svg" viewBox="0 0 40 40"><defs><style>.toasts-info1{fill:#fff;}</style></defs><path class="toasts-info1" d="M50,30A20,20,0,1,0,70,50,20,20,0,0,0,50,30Zm4.17,31c-1,.4-1.85.71-2.46.92a6.27,6.27,0,0,1-2.13.33,4.23,4.23,0,0,1-2.91-.92,2.92,2.92,0,0,1-1-2.32,8.53,8.53,0,0,1,.08-1.11c0-.38.13-.8.24-1.28l1.3-4.56c.11-.44.21-.85.28-1.23a5.47,5.47,0,0,0,.12-1.07,1.66,1.66,0,0,0-.36-1.22,2,2,0,0,0-1.38-.34,3.71,3.71,0,0,0-1,.15l-.89.3.34-1.4c.84-.34,1.65-.63,2.42-.88A7,7,0,0,1,48.93,46a4.14,4.14,0,0,1,2.86.9,3,3,0,0,1,1,2.33c0,.2,0,.54-.07,1a6.8,6.8,0,0,1-.26,1.37l-1.28,4.54c-.1.36-.19.78-.29,1.25a6.79,6.79,0,0,0-.12,1,1.54,1.54,0,0,0,.41,1.24,2.24,2.24,0,0,0,1.4.33,4.07,4.07,0,0,0,1.06-.17,4.64,4.64,0,0,0,.86-.29Zm-.22-18.42a3.21,3.21,0,0,1-4.33,0,2.65,2.65,0,0,1-.9-2,2.68,2.68,0,0,1,.9-2,3.24,3.24,0,0,1,4.33,0,2.71,2.71,0,0,1,.89,2,2.67,2.67,0,0,1-.89,2Zm0,0" transform="translate(-30 -30)"/></svg>