<svg id="Layer_1" data-name="Layer 1" xmlns="http://www.w3.org/2000/svg" viewBox="0 0 24.61 20"><defs><style>.twitter-grayscale1{fill:#FFFFFF;}</style></defs><path id="Twitter_Icon" data-name="Twitter Icon" class="twitter-grayscale1" d="M62.31,42.36a9.84,9.84,0,0,1-2.9.79,5.09,5.09,0,0,0,2.22-2.79,10.36,10.36,0,0,1-3.21,1.23,5.05,5.05,0,0,0-8.6,4.6,14.33,14.33,0,0,1-10.41-5.27A5.05,5.05,0,0,0,41,47.66,5.1,5.1,0,0,1,38.68,47a5,5,0,0,0,4,5,4.88,4.88,0,0,1-2.28.09,5.06,5.06,0,0,0,4.72,3.51,10.16,10.16,0,0,1-7.48,2.09A14.36,14.36,0,0,0,59.8,45.8c0-.27,0-.55,0-.83a10.42,10.42,0,0,0,2.52-2.61" transform="translate(-37.69 -40)"/></svg>