<?xml version="1.0" encoding="UTF-8"?><svg id="a" xmlns="http://www.w3.org/2000/svg" viewBox="0 0 30 30"><defs><style>.c{fill:#969899;}</style></defs><path id="b" class="c" d="M12.51,11.39l6.37,3.62-6.38,3.62v-7.25ZM30,3.21V26.79c0,1.77-1.44,3.21-3.21,3.21H3.21c-1.77,0-3.21-1.44-3.21-3.21V3.21C0,1.44,1.44,0,3.21,0H26.79c1.77,0,3.21,1.44,3.21,3.21Zm-2.81,11.81c.01-1.98-.16-3.96-.51-5.91-.28-1.06-1.1-1.88-2.16-2.17-1.9-.52-9.52-.52-9.52-.52,0,0-7.63,0-9.52,.52-1.05,.29-1.88,1.11-2.16,2.17-.35,1.95-.52,3.93-.51,5.91-.01,1.98,.16,3.96,.51,5.91,.28,1.05,1.11,1.86,2.16,2.14,1.9,.51,9.52,.51,9.52,.51,0,0,7.63,0,9.52-.52,1.05-.27,1.87-1.09,2.16-2.14,.35-1.95,.52-3.92,.51-5.9h0Z"/></svg>